<svg width="329.28" height="449.39" viewBox="-8.26 -11.10 16.46 22.47" xmlns="http://www.w3.org/2000/svg">
    <style><![CDATA[
.nad-branch-edges polyline, .nad-branch-edges path {stroke: var(--nad-vl-color, lightgrey); stroke-width: 0.05; fill: none}
.nad-branch-edges circle {stroke: var(--nad-vl-color, lightgrey); stroke-width: 0.05; fill: white}
.nad-3wt-edges polyline {stroke: var(--nad-vl-color, lightgrey); stroke-width: 0.05; fill: none}
.nad-text-edges {stroke: black; stroke-width: 0.02; stroke-dasharray: .03,.05}
.nad-branch-edges .nad-disconnected polyline {stroke-dasharray: .1,.1}
.nad-vl-nodes circle, .nad-vl-nodes path {fill: var(--nad-vl-color, lightgrey); stroke-width: 0.05; stroke: white; stroke-linejoin:round}
.nad-vl-nodes circle.nad-unknown-busnode {stroke: var(--nad-vl-color, #808080); stroke-dasharray: .05,.05; fill: none}
.nad-hvdc-edge polyline.nad-hvdc {stroke: grey; stroke-width: 0.2}
.nad-3wt-nodes circle {stroke: var(--nad-vl-color, lightgrey); stroke-width: 0.05; fill: none}
.nad-3wt-bg circle {stroke: none; fill: white}
.nad-state-out .nad-arrow-in {visibility: hidden}
.nad-state-in .nad-arrow-out {visibility: hidden}
.nad-active path {stroke: none; fill: #546e7a}
.nad-active {visibility: visible}
.nad-reactive {visibility: hidden}
.nad-reactive path {stroke: none; fill: #0277bd}
.nad-text-background {flood-color: #90a4aeaa}
.nad-text-nodes {font: 0.25px "Verdana"; fill: black}
.nad-edge-infos text {font: 0.2px "Verdana"; dominant-baseline:middle; stroke: #FFFFFFAA; stroke-width: 0.1; stroke-linejoin:round; paint-order: stroke}
.nad-edge-infos .nad-state-in text {fill: #b71c1c}
.nad-edge-infos .nad-state-out text {fill: #2e7d32}
.nad-disconnected {--nad-vl-color: #808080}
.nad-vl0to30-0 {--nad-vl-color: #afb42b}
.nad-vl0to30-1 {--nad-vl-color: #e6ee9c}
.nad-vl0to30-2 {--nad-vl-color: #d4e157}
.nad-vl0to30-3 {--nad-vl-color: #827717}
.nad-vl0to30-4 {--nad-vl-color: #c0ca33}
.nad-vl0to30-5 {--nad-vl-color: #f0fc83}
.nad-vl0to30-6 {--nad-vl-color: #9e9d24}
.nad-vl0to30-7 {--nad-vl-color: #cddc39}
.nad-vl0to30-8 {--nad-vl-color: #dce775}
.nad-vl0to30-9 {--nad-vl-color: #ddfc88}
.nad-vl30to50-0 {--nad-vl-color: #ef9a9a}
.nad-vl30to50-1 {--nad-vl-color: #f06292}
.nad-vl30to50-2 {--nad-vl-color: #d81b60}
.nad-vl30to50-3 {--nad-vl-color: #c2185b}
.nad-vl30to50-4 {--nad-vl-color: #ec407a}
.nad-vl30to50-5 {--nad-vl-color: #880e4f}
.nad-vl30to50-6 {--nad-vl-color: #ad1457}
.nad-vl30to50-7 {--nad-vl-color: #e91e63}
.nad-vl30to50-8 {--nad-vl-color: #f48fb1}
.nad-vl30to50-9 {--nad-vl-color: #f8bbd0}
.nad-vl50to70-0 {--nad-vl-color: #9c27b0}
.nad-vl50to70-1 {--nad-vl-color: #512da8}
.nad-vl50to70-2 {--nad-vl-color: #ba68c8}
.nad-vl50to70-3 {--nad-vl-color: #7b1fa2}
.nad-vl50to70-4 {--nad-vl-color: #ab47bc}
.nad-vl50to70-5 {--nad-vl-color: #e1bee7}
.nad-vl50to70-6 {--nad-vl-color: #6a1b9a}
.nad-vl50to70-7 {--nad-vl-color: #4a148c}
.nad-vl50to70-8 {--nad-vl-color: #ce93d8}
.nad-vl50to70-9 {--nad-vl-color: #9575cd}
.nad-vl70to120-0 {--nad-vl-color: #e65100}
.nad-vl70to120-1 {--nad-vl-color: #ffb74d}
.nad-vl70to120-2 {--nad-vl-color: #fb8c00}
.nad-vl70to120-3 {--nad-vl-color: #f57c00}
.nad-vl70to120-4 {--nad-vl-color: #ffa726}
.nad-vl70to120-5 {--nad-vl-color: #ffe0b2}
.nad-vl70to120-6 {--nad-vl-color: #ef6c00}
.nad-vl70to120-7 {--nad-vl-color: #ff9800}
.nad-vl70to120-8 {--nad-vl-color: #ffcc80}
.nad-vl70to120-9 {--nad-vl-color: #fff3e0}
.nad-vl120to180-0 {--nad-vl-color: #00ACC1}
.nad-vl120to180-1 {--nad-vl-color: #b3e5fc}
.nad-vl120to180-2 {--nad-vl-color: #01579b}
.nad-vl120to180-3 {--nad-vl-color: #4fc3f7}
.nad-vl120to180-4 {--nad-vl-color: #039be5}
.nad-vl120to180-5 {--nad-vl-color: #0288d1}
.nad-vl120to180-6 {--nad-vl-color: #29b6f6}
.nad-vl120to180-7 {--nad-vl-color: #81d4fa}
.nad-vl120to180-8 {--nad-vl-color: #0277bd}
.nad-vl120to180-9 {--nad-vl-color: #03a9f4}
.nad-vl180to300-0 {--nad-vl-color: #2e7d32}
.nad-vl180to300-1 {--nad-vl-color: #c8e6c9}
.nad-vl180to300-2 {--nad-vl-color: #558b2f}
.nad-vl180to300-3 {--nad-vl-color: #81c784}
.nad-vl180to300-4 {--nad-vl-color: #43a047}
.nad-vl180to300-5 {--nad-vl-color: #a5d6a7}
.nad-vl180to300-6 {--nad-vl-color: #388e3c}
.nad-vl180to300-7 {--nad-vl-color: #66bb6a}
.nad-vl180to300-8 {--nad-vl-color: #1b5e20}
.nad-vl180to300-9 {--nad-vl-color: #4caf50}
.nad-vl300to500-0 {--nad-vl-color: #d32f2f}
.nad-vl300to500-1 {--nad-vl-color: #ffcdd2}
.nad-vl300to500-2 {--nad-vl-color: #e57373}
.nad-vl300to500-3 {--nad-vl-color: #ff8a80}
.nad-vl300to500-4 {--nad-vl-color: #b71c1c}
.nad-vl300to500-5 {--nad-vl-color: #ef5350}
.nad-vl300to500-6 {--nad-vl-color: #e53935}
.nad-vl300to500-7 {--nad-vl-color: #ef9a9a}
.nad-vl300to500-8 {--nad-vl-color: #f44336}
.nad-vl300to500-9 {--nad-vl-color: #c62828}
.nad-branch-edges .nad-overload polyline, .nad-branch-edges .nad-overload path {animation: line-blink 3s infinite}
.nad-vl-nodes .nad-overvoltage {animation: node-over-blink 3s infinite}
.nad-vl-nodes .nad-undervoltage {animation: node-under-blink 3s infinite}

@keyframes line-blink {
  0%, 80%, 100% {stroke: var(--nad-vl-color, black); stroke-width: 0.05}
  40% {stroke: #FFEB3B; stroke-width: 0.15}
}
@keyframes node-over-blink {
  0%, 80%, 100% {stroke: white; stroke-width: 0.05}
  40% {stroke: #ff5722; stroke-width: 0.15}
}
@keyframes node-under-blink {
  0%, 80%, 100% {stroke: white; stroke-width: 0.05}
  40% {stroke: #00BCD4; stroke-width: 0.15}
}
]]></style>
    <metadata></metadata>
    <defs>
        <filter id="textBgFilter" x="0" y="0" width="1" height="1">
            <feFlood class="nad-text-background"/>
            <feComposite in="SourceGraphic" operator="over"/>
        </filter>
    </defs>
    <g class="nad-vl-nodes">
        <g transform="translate(3.27,-0.36)" id="0">
            <circle r="0.30" id="1" class="nad-vl300to500-0"/>
        </g>
        <g transform="translate(5.20,-2.76)" id="2">
            <circle r="0.30" id="3" class="nad-vl300to500-0"/>
        </g>
        <g transform="translate(4.86,2.25)" id="4">
            <circle r="0.30" id="5" class="nad-vl300to500-0"/>
        </g>
        <g transform="translate(1.98,-6.33)" id="6">
            <circle r="0.30" id="7" class="nad-vl300to500-0"/>
        </g>
        <g transform="translate(1.45,5.68)" id="8">
            <circle r="0.30" id="9" class="nad-vl300to500-0"/>
            <path d="M-0.541,-0.259 A0.600,0.600 17.522 0 1 -0.439,-0.410 L-0.236,-0.186 A0.300,0.300 -7.973 0 0 -0.259,-0.151 Z M-0.364,-0.477 A0.600,0.600 154.607 0 1 0.534,0.274 L0.277,0.114 A0.300,0.300 -145.058 0 0 -0.162,-0.253 Z M0.481,0.359 A0.600,0.600 159.222 0 1 -0.577,-0.165 L-0.294,-0.058 A0.300,0.300 -149.673 0 0 0.225,0.199 Z " id="10" class="nad-vl300to500-0"/>
        </g>
        <g transform="translate(-3.36,3.86)" id="11">
            <circle r="0.30" id="12" class="nad-vl300to500-0"/>
        </g>
        <g transform="translate(3.42,9.37)" id="13">
            <circle r="0.30" id="14" class="nad-vl300to500-0"/>
        </g>
        <g transform="translate(-0.56,-9.10)" id="15">
            <circle r="0.30" id="16" class="nad-vl300to500-0"/>
        </g>
        <g transform="translate(-2.23,-5.56)" id="17">
            <circle r="0.30" id="18" class="nad-vl300to500-0"/>
        </g>
    </g>
    <g class="nad-branch-edges">
        <g id="19">
            <g class="nad-vl300to500-0">
                <polyline points="3.44,-0.57 4.24,-1.56"/>
                <g class="nad-edge-infos" transform="translate(3.63,-0.81)">
                    <g class="nad-active nad-state-out">
                        <g transform="rotate(38.86)">
                            <path class="nad-arrow-in" d="M-0.1 -0.1 H0.1 L0 0.1z"/>
                            <path class="nad-arrow-out" d="M-0.1 0.1 H0.1 L0 -0.1z"/>
                        </g>
                        <text transform="rotate(-51.14)" x="0.19">0</text>
                    </g>
                    <g class="nad-reactive nad-state-out">
                        <g transform="rotate(38.86)">
                            <path class="nad-arrow-in" d="M-0.1 -0.1 H0.1 L0 0.1z"/>
                            <path class="nad-arrow-out" d="M-0.1 0.1 H0.1 L0 -0.1z"/>
                        </g>
                        <text transform="rotate(-51.14)" x="0.19">0</text>
                    </g>
                </g>
            </g>
            <g class="nad-vl300to500-0">
                <polyline points="5.03,-2.55 4.24,-1.56"/>
                <g class="nad-edge-infos" transform="translate(4.84,-2.32)">
                    <g class="nad-active nad-state-out">
                        <g transform="rotate(-141.14)">
                            <path class="nad-arrow-in" d="M-0.1 -0.1 H0.1 L0 0.1z"/>
                            <path class="nad-arrow-out" d="M-0.1 0.1 H0.1 L0 -0.1z"/>
                        </g>
                        <text transform="rotate(-51.14)" x="-0.19" style="text-anchor:end">0</text>
                    </g>
                    <g class="nad-reactive nad-state-out">
                        <g transform="rotate(-141.14)">
                            <path class="nad-arrow-in" d="M-0.1 -0.1 H0.1 L0 0.1z"/>
                            <path class="nad-arrow-out" d="M-0.1 0.1 H0.1 L0 -0.1z"/>
                        </g>
                        <text transform="rotate(-51.14)" x="-0.19" style="text-anchor:end">0</text>
                    </g>
                </g>
            </g>
        </g>
        <g id="20">
            <g class="nad-vl300to500-0">
                <polyline points="3.41,-0.13 4.07,0.95"/>
                <g class="nad-edge-infos" transform="translate(3.57,0.12)">
                    <g class="nad-active nad-state-out">
                        <g transform="rotate(148.63)">
                            <path class="nad-arrow-in" d="M-0.1 -0.1 H0.1 L0 0.1z"/>
                            <path class="nad-arrow-out" d="M-0.1 0.1 H0.1 L0 -0.1z"/>
                        </g>
                        <text transform="rotate(58.63)" x="0.19">0</text>
                    </g>
                    <g class="nad-reactive nad-state-out">
                        <g transform="rotate(148.63)">
                            <path class="nad-arrow-in" d="M-0.1 -0.1 H0.1 L0 0.1z"/>
                            <path class="nad-arrow-out" d="M-0.1 0.1 H0.1 L0 -0.1z"/>
                        </g>
                        <text transform="rotate(58.63)" x="0.19">0</text>
                    </g>
                </g>
            </g>
            <g class="nad-vl300to500-0">
                <polyline points="4.72,2.02 4.07,0.95"/>
                <g class="nad-edge-infos" transform="translate(4.57,1.77)">
                    <g class="nad-active nad-state-out">
                        <g transform="rotate(-31.37)">
                            <path class="nad-arrow-in" d="M-0.1 -0.1 H0.1 L0 0.1z"/>
                            <path class="nad-arrow-out" d="M-0.1 0.1 H0.1 L0 -0.1z"/>
                        </g>
                        <text transform="rotate(-301.37)" x="-0.19" style="text-anchor:end">0</text>
                    </g>
                    <g class="nad-reactive nad-state-out">
                        <g transform="rotate(-31.37)">
                            <path class="nad-arrow-in" d="M-0.1 -0.1 H0.1 L0 0.1z"/>
                            <path class="nad-arrow-out" d="M-0.1 0.1 H0.1 L0 -0.1z"/>
                        </g>
                        <text transform="rotate(-301.37)" x="-0.19" style="text-anchor:end">0</text>
                    </g>
                </g>
            </g>
        </g>
        <g id="21">
            <g class="nad-vl300to500-0">
                <polyline points="5.02,-2.96 3.59,-4.55"/>
                <g class="nad-edge-infos" transform="translate(4.82,-3.18)">
                    <g class="nad-active nad-state-out">
                        <g transform="rotate(-42.04)">
                            <path class="nad-arrow-in" d="M-0.1 -0.1 H0.1 L0 0.1z"/>
                            <path class="nad-arrow-out" d="M-0.1 0.1 H0.1 L0 -0.1z"/>
                        </g>
                        <text transform="rotate(-312.04)" x="-0.19" style="text-anchor:end">0</text>
                    </g>
                    <g class="nad-reactive nad-state-out">
                        <g transform="rotate(-42.04)">
                            <path class="nad-arrow-in" d="M-0.1 -0.1 H0.1 L0 0.1z"/>
                            <path class="nad-arrow-out" d="M-0.1 0.1 H0.1 L0 -0.1z"/>
                        </g>
                        <text transform="rotate(-312.04)" x="-0.19" style="text-anchor:end">0</text>
                    </g>
                </g>
            </g>
            <g class="nad-vl300to500-0">
                <polyline points="2.16,-6.13 3.59,-4.55"/>
                <g class="nad-edge-infos" transform="translate(2.36,-5.91)">
                    <g class="nad-active nad-state-out">
                        <g transform="rotate(137.96)">
                            <path class="nad-arrow-in" d="M-0.1 -0.1 H0.1 L0 0.1z"/>
                            <path class="nad-arrow-out" d="M-0.1 0.1 H0.1 L0 -0.1z"/>
                        </g>
                        <text transform="rotate(47.96)" x="0.19">0</text>
                    </g>
                    <g class="nad-reactive nad-state-out">
                        <g transform="rotate(137.96)">
                            <path class="nad-arrow-in" d="M-0.1 -0.1 H0.1 L0 0.1z"/>
                            <path class="nad-arrow-out" d="M-0.1 0.1 H0.1 L0 -0.1z"/>
                        </g>
                        <text transform="rotate(47.96)" x="0.19">0</text>
                    </g>
                </g>
            </g>
        </g>
        <g id="22">
            <g class="nad-vl300to500-0">
                <polyline points="5.18,-2.49 5.03,-0.25"/>
                <g class="nad-edge-infos" transform="translate(5.16,-2.19)">
                    <g class="nad-active nad-state-out">
                        <g transform="rotate(-176.15)">
                            <path class="nad-arrow-in" d="M-0.1 -0.1 H0.1 L0 0.1z"/>
                            <path class="nad-arrow-out" d="M-0.1 0.1 H0.1 L0 -0.1z"/>
                        </g>
                        <text transform="rotate(-86.15)" x="-0.19" style="text-anchor:end">0</text>
                    </g>
                    <g class="nad-reactive nad-state-out">
                        <g transform="rotate(-176.15)">
                            <path class="nad-arrow-in" d="M-0.1 -0.1 H0.1 L0 0.1z"/>
                            <path class="nad-arrow-out" d="M-0.1 0.1 H0.1 L0 -0.1z"/>
                        </g>
                        <text transform="rotate(-86.15)" x="-0.19" style="text-anchor:end">0</text>
                    </g>
                </g>
            </g>
            <g class="nad-vl300to500-0">
                <polyline points="4.88,1.99 5.03,-0.25"/>
                <g class="nad-edge-infos" transform="translate(4.90,1.69)">
                    <g class="nad-active nad-state-out">
                        <g transform="rotate(3.85)">
                            <path class="nad-arrow-in" d="M-0.1 -0.1 H0.1 L0 0.1z"/>
                            <path class="nad-arrow-out" d="M-0.1 0.1 H0.1 L0 -0.1z"/>
                        </g>
                        <text transform="rotate(-86.15)" x="0.19">0</text>
                    </g>
                    <g class="nad-reactive nad-state-out">
                        <g transform="rotate(3.85)">
                            <path class="nad-arrow-in" d="M-0.1 -0.1 H0.1 L0 0.1z"/>
                            <path class="nad-arrow-out" d="M-0.1 0.1 H0.1 L0 -0.1z"/>
                        </g>
                        <text transform="rotate(-86.15)" x="0.19">0</text>
                    </g>
                </g>
            </g>
        </g>
        <g id="23">
            <g class="nad-vl300to500-0">
                <polyline points="1.86,5.27 3.27,3.86"/>
                <g class="nad-edge-infos" transform="translate(2.07,5.06)">
                    <g class="nad-active nad-state-out">
                        <g transform="rotate(44.89)">
                            <path class="nad-arrow-in" d="M-0.1 -0.1 H0.1 L0 0.1z"/>
                            <path class="nad-arrow-out" d="M-0.1 0.1 H0.1 L0 -0.1z"/>
                        </g>
                        <text transform="rotate(-45.11)" x="0.19">0</text>
                    </g>
                    <g class="nad-reactive nad-state-out">
                        <g transform="rotate(44.89)">
                            <path class="nad-arrow-in" d="M-0.1 -0.1 H0.1 L0 0.1z"/>
                            <path class="nad-arrow-out" d="M-0.1 0.1 H0.1 L0 -0.1z"/>
                        </g>
                        <text transform="rotate(-45.11)" x="0.19">0</text>
                    </g>
                </g>
            </g>
            <g class="nad-vl300to500-0">
                <polyline points="4.67,2.45 3.27,3.86"/>
                <g class="nad-edge-infos" transform="translate(4.46,2.66)">
                    <g class="nad-active nad-state-out">
                        <g transform="rotate(-135.11)">
                            <path class="nad-arrow-in" d="M-0.1 -0.1 H0.1 L0 0.1z"/>
                            <path class="nad-arrow-out" d="M-0.1 0.1 H0.1 L0 -0.1z"/>
                        </g>
                        <text transform="rotate(-45.11)" x="-0.19" style="text-anchor:end">0</text>
                    </g>
                    <g class="nad-reactive nad-state-out">
                        <g transform="rotate(-135.11)">
                            <path class="nad-arrow-in" d="M-0.1 -0.1 H0.1 L0 0.1z"/>
                            <path class="nad-arrow-out" d="M-0.1 0.1 H0.1 L0 -0.1z"/>
                        </g>
                        <text transform="rotate(-45.11)" x="-0.19" style="text-anchor:end">0</text>
                    </g>
                </g>
            </g>
        </g>
        <g id="24">
            <g class="nad-vl300to500-0">
                <polyline points="-0.37,-8.90 0.71,-7.71"/>
                <g class="nad-edge-infos" transform="translate(-0.17,-8.68)">
                    <g class="nad-active nad-state-out">
                        <g transform="rotate(137.42)">
                            <path class="nad-arrow-in" d="M-0.1 -0.1 H0.1 L0 0.1z"/>
                            <path class="nad-arrow-out" d="M-0.1 0.1 H0.1 L0 -0.1z"/>
                        </g>
                        <text transform="rotate(47.42)" x="0.19">0</text>
                    </g>
                    <g class="nad-reactive nad-state-out">
                        <g transform="rotate(137.42)">
                            <path class="nad-arrow-in" d="M-0.1 -0.1 H0.1 L0 0.1z"/>
                            <path class="nad-arrow-out" d="M-0.1 0.1 H0.1 L0 -0.1z"/>
                        </g>
                        <text transform="rotate(47.42)" x="0.19">0</text>
                    </g>
                </g>
            </g>
            <g class="nad-vl300to500-0">
                <polyline points="1.80,-6.53 0.71,-7.71"/>
                <g class="nad-edge-infos" transform="translate(1.59,-6.75)">
                    <g class="nad-active nad-state-out">
                        <g transform="rotate(-42.58)">
                            <path class="nad-arrow-in" d="M-0.1 -0.1 H0.1 L0 0.1z"/>
                            <path class="nad-arrow-out" d="M-0.1 0.1 H0.1 L0 -0.1z"/>
                        </g>
                        <text transform="rotate(-312.58)" x="-0.19" style="text-anchor:end">0</text>
                    </g>
                    <g class="nad-reactive nad-state-out">
                        <g transform="rotate(-42.58)">
                            <path class="nad-arrow-in" d="M-0.1 -0.1 H0.1 L0 0.1z"/>
                            <path class="nad-arrow-out" d="M-0.1 0.1 H0.1 L0 -0.1z"/>
                        </g>
                        <text transform="rotate(-312.58)" x="-0.19" style="text-anchor:end">0</text>
                    </g>
                </g>
            </g>
        </g>
        <g id="25">
            <g class="nad-vl300to500-0">
                <polyline points="-1.96,-5.61 -0.12,-5.95"/>
                <g class="nad-edge-infos" transform="translate(-1.66,-5.67)">
                    <g class="nad-active nad-state-out">
                        <g transform="rotate(79.61)">
                            <path class="nad-arrow-in" d="M-0.1 -0.1 H0.1 L0 0.1z"/>
                            <path class="nad-arrow-out" d="M-0.1 0.1 H0.1 L0 -0.1z"/>
                        </g>
                        <text transform="rotate(-10.39)" x="0.19">0</text>
                    </g>
                    <g class="nad-reactive nad-state-out">
                        <g transform="rotate(79.61)">
                            <path class="nad-arrow-in" d="M-0.1 -0.1 H0.1 L0 0.1z"/>
                            <path class="nad-arrow-out" d="M-0.1 0.1 H0.1 L0 -0.1z"/>
                        </g>
                        <text transform="rotate(-10.39)" x="0.19">0</text>
                    </g>
                </g>
            </g>
            <g class="nad-vl300to500-0">
                <polyline points="1.71,-6.29 -0.12,-5.95"/>
                <g class="nad-edge-infos" transform="translate(1.42,-6.23)">
                    <g class="nad-active nad-state-out">
                        <g transform="rotate(-100.39)">
                            <path class="nad-arrow-in" d="M-0.1 -0.1 H0.1 L0 0.1z"/>
                            <path class="nad-arrow-out" d="M-0.1 0.1 H0.1 L0 -0.1z"/>
                        </g>
                        <text transform="rotate(-10.39)" x="-0.19" style="text-anchor:end">0</text>
                    </g>
                    <g class="nad-reactive nad-state-out">
                        <g transform="rotate(-100.39)">
                            <path class="nad-arrow-in" d="M-0.1 -0.1 H0.1 L0 0.1z"/>
                            <path class="nad-arrow-out" d="M-0.1 0.1 H0.1 L0 -0.1z"/>
                        </g>
                        <text transform="rotate(-10.39)" x="-0.19" style="text-anchor:end">0</text>
                    </g>
                </g>
            </g>
        </g>
        <g id="26">
            <g class="nad-vl300to500-0">
                <path d="M1.27,5.48 L0.92,5.09 C0.65,4.79 0.81,4.59 1.20,4.50"/>
                <g class="nad-edge-infos" transform="translate(0.92,5.09)">
                    <g class="nad-active nad-state-out">
                        <g transform="rotate(-42.18)">
                            <path class="nad-arrow-in" d="M-0.1 -0.1 H0.1 L0 0.1z"/>
                            <path class="nad-arrow-out" d="M-0.1 0.1 H0.1 L0 -0.1z"/>
                        </g>
                        <text transform="rotate(-312.18)" x="-0.19" style="text-anchor:end">0</text>
                    </g>
                    <g class="nad-reactive nad-state-out">
                        <g transform="rotate(-42.18)">
                            <path class="nad-arrow-in" d="M-0.1 -0.1 H0.1 L0 0.1z"/>
                            <path class="nad-arrow-out" d="M-0.1 0.1 H0.1 L0 -0.1z"/>
                        </g>
                        <text transform="rotate(-312.18)" x="-0.19" style="text-anchor:end">0</text>
                    </g>
                </g>
                <circle cx="1.16" cy="4.59" r="0.20"/>
            </g>
            <g class="nad-vl300to500-0">
                <path d="M1.63,5.14 L1.70,4.92 C1.82,4.54 1.59,4.42 1.20,4.50"/>
                <g class="nad-edge-infos" transform="translate(1.70,4.92)">
                    <g class="nad-active nad-state-out">
                        <g transform="rotate(17.82)">
                            <path class="nad-arrow-in" d="M-0.1 -0.1 H0.1 L0 0.1z"/>
                            <path class="nad-arrow-out" d="M-0.1 0.1 H0.1 L0 -0.1z"/>
                        </g>
                        <text transform="rotate(-72.18)" x="0.19">0</text>
                    </g>
                    <g class="nad-reactive nad-state-out">
                        <g transform="rotate(17.82)">
                            <path class="nad-arrow-in" d="M-0.1 -0.1 H0.1 L0 0.1z"/>
                            <path class="nad-arrow-out" d="M-0.1 0.1 H0.1 L0 -0.1z"/>
                        </g>
                        <text transform="rotate(-72.18)" x="0.19">0</text>
                    </g>
                </g>
                <circle cx="1.28" cy="4.57" r="0.20"/>
            </g>
        </g>
        <g id="27">
            <g class="nad-vl300to500-0">
                <polyline points="-3.10,3.95 -0.95,4.77"/>
                <g class="nad-edge-infos" transform="translate(-2.82,4.06)">
                    <g class="nad-active nad-state-out">
                        <g transform="rotate(110.75)">
                            <path class="nad-arrow-in" d="M-0.1 -0.1 H0.1 L0 0.1z"/>
                            <path class="nad-arrow-out" d="M-0.1 0.1 H0.1 L0 -0.1z"/>
                        </g>
                        <text transform="rotate(20.75)" x="0.19">0</text>
                    </g>
                    <g class="nad-reactive nad-state-out">
                        <g transform="rotate(110.75)">
                            <path class="nad-arrow-in" d="M-0.1 -0.1 H0.1 L0 0.1z"/>
                            <path class="nad-arrow-out" d="M-0.1 0.1 H0.1 L0 -0.1z"/>
                        </g>
                        <text transform="rotate(20.75)" x="0.19">0</text>
                    </g>
                </g>
            </g>
            <g class="nad-vl300to500-0">
                <polyline points="1.20,5.58 -0.95,4.77"/>
                <g class="nad-edge-infos" transform="translate(0.64,5.37)">
                    <g class="nad-active nad-state-out">
                        <g transform="rotate(-69.25)">
                            <path class="nad-arrow-in" d="M-0.1 -0.1 H0.1 L0 0.1z"/>
                            <path class="nad-arrow-out" d="M-0.1 0.1 H0.1 L0 -0.1z"/>
                        </g>
                        <text transform="rotate(-339.25)" x="-0.19" style="text-anchor:end">0</text>
                    </g>
                    <g class="nad-reactive nad-state-out">
                        <g transform="rotate(-69.25)">
                            <path class="nad-arrow-in" d="M-0.1 -0.1 H0.1 L0 0.1z"/>
                            <path class="nad-arrow-out" d="M-0.1 0.1 H0.1 L0 -0.1z"/>
                        </g>
                        <text transform="rotate(-339.25)" x="-0.19" style="text-anchor:end">0</text>
                    </g>
                </g>
            </g>
        </g>
        <g id="28">
            <g class="nad-vl300to500-0">
                <polyline points="3.43,9.10 3.45,8.57 2.79,7.34"/>
                <g class="nad-edge-infos" transform="translate(3.31,8.31)">
                    <g class="nad-active nad-state-out">
                        <g transform="rotate(-28.02)">
                            <path class="nad-arrow-in" d="M-0.1 -0.1 H0.1 L0 0.1z"/>
                            <path class="nad-arrow-out" d="M-0.1 0.1 H0.1 L0 -0.1z"/>
                        </g>
                        <text transform="rotate(-298.02)" x="-0.19" style="text-anchor:end">0</text>
                    </g>
                    <g class="nad-reactive nad-state-out">
                        <g transform="rotate(-28.02)">
                            <path class="nad-arrow-in" d="M-0.1 -0.1 H0.1 L0 0.1z"/>
                            <path class="nad-arrow-out" d="M-0.1 0.1 H0.1 L0 -0.1z"/>
                        </g>
                        <text transform="rotate(-298.02)" x="-0.19" style="text-anchor:end">0</text>
                    </g>
                </g>
            </g>
            <g class="nad-vl300to500-0">
                <polyline points="1.68,5.82 2.13,6.10 2.79,7.34"/>
                <g class="nad-edge-infos" transform="translate(2.27,6.37)">
                    <g class="nad-active nad-state-out">
                        <g transform="rotate(151.98)">
                            <path class="nad-arrow-in" d="M-0.1 -0.1 H0.1 L0 0.1z"/>
                            <path class="nad-arrow-out" d="M-0.1 0.1 H0.1 L0 -0.1z"/>
                        </g>
                        <text transform="rotate(61.98)" x="0.19">0</text>
                    </g>
                    <g class="nad-reactive nad-state-out">
                        <g transform="rotate(151.98)">
                            <path class="nad-arrow-in" d="M-0.1 -0.1 H0.1 L0 0.1z"/>
                            <path class="nad-arrow-out" d="M-0.1 0.1 H0.1 L0 -0.1z"/>
                        </g>
                        <text transform="rotate(61.98)" x="0.19">0</text>
                    </g>
                </g>
            </g>
        </g>
        <g id="29">
            <g class="nad-vl300to500-0">
                <polyline points="3.19,9.23 2.74,8.95 2.09,7.71"/>
                <g class="nad-edge-infos" transform="translate(2.60,8.69)">
                    <g class="nad-active nad-state-out">
                        <g transform="rotate(-28.02)">
                            <path class="nad-arrow-in" d="M-0.1 -0.1 H0.1 L0 0.1z"/>
                            <path class="nad-arrow-out" d="M-0.1 0.1 H0.1 L0 -0.1z"/>
                        </g>
                        <text transform="rotate(-298.02)" x="-0.19" style="text-anchor:end">0</text>
                    </g>
                    <g class="nad-reactive nad-state-out">
                        <g transform="rotate(-28.02)">
                            <path class="nad-arrow-in" d="M-0.1 -0.1 H0.1 L0 0.1z"/>
                            <path class="nad-arrow-out" d="M-0.1 0.1 H0.1 L0 -0.1z"/>
                        </g>
                        <text transform="rotate(-298.02)" x="-0.19" style="text-anchor:end">0</text>
                    </g>
                </g>
            </g>
            <g class="nad-vl300to500-0">
                <polyline points="1.43,6.25 1.43,6.48 2.09,7.71"/>
                <g class="nad-edge-infos" transform="translate(1.57,6.74)">
                    <g class="nad-active nad-state-out">
                        <g transform="rotate(151.98)">
                            <path class="nad-arrow-in" d="M-0.1 -0.1 H0.1 L0 0.1z"/>
                            <path class="nad-arrow-out" d="M-0.1 0.1 H0.1 L0 -0.1z"/>
                        </g>
                        <text transform="rotate(61.98)" x="0.19">0</text>
                    </g>
                    <g class="nad-reactive nad-state-out">
                        <g transform="rotate(151.98)">
                            <path class="nad-arrow-in" d="M-0.1 -0.1 H0.1 L0 0.1z"/>
                            <path class="nad-arrow-out" d="M-0.1 0.1 H0.1 L0 -0.1z"/>
                        </g>
                        <text transform="rotate(61.98)" x="0.19">0</text>
                    </g>
                </g>
            </g>
        </g>
        <g id="32">
            <g class="nad-vl300to500-0">
                <polyline points="-3.55,4.05 -4.81,5.33"/>
                <g class="nad-edge-infos" transform="translate(-3.76,4.26)">
                    <g class="nad-active nad-state-out">
                        <g transform="rotate(-135.35)">
                            <path class="nad-arrow-in" d="M-0.1 -0.1 H0.1 L0 0.1z"/>
                            <path class="nad-arrow-out" d="M-0.1 0.1 H0.1 L0 -0.1z"/>
                        </g>
                        <text transform="rotate(-45.35)" x="-0.19" style="text-anchor:end">0</text>
                    </g>
                    <g class="nad-reactive nad-state-out">
                        <g transform="rotate(-135.35)">
                            <path class="nad-arrow-in" d="M-0.1 -0.1 H0.1 L0 0.1z"/>
                            <path class="nad-arrow-out" d="M-0.1 0.1 H0.1 L0 -0.1z"/>
                        </g>
                        <text transform="rotate(-45.35)" x="-0.19" style="text-anchor:end">0</text>
                    </g>
                </g>
            </g>
        </g>
        <g id="35">
            <g class="nad-vl300to500-0">
                <polyline points="-3.41,3.59 -3.82,1.39"/>
                <g class="nad-edge-infos" transform="translate(-3.46,3.30)">
                    <g class="nad-active nad-state-out">
                        <g transform="rotate(-10.66)">
                            <path class="nad-arrow-in" d="M-0.1 -0.1 H0.1 L0 0.1z"/>
                            <path class="nad-arrow-out" d="M-0.1 0.1 H0.1 L0 -0.1z"/>
                        </g>
                        <text transform="rotate(-280.66)" x="-0.19" style="text-anchor:end">0</text>
                    </g>
                    <g class="nad-reactive nad-state-out">
                        <g transform="rotate(-10.66)">
                            <path class="nad-arrow-in" d="M-0.1 -0.1 H0.1 L0 0.1z"/>
                            <path class="nad-arrow-out" d="M-0.1 0.1 H0.1 L0 -0.1z"/>
                        </g>
                        <text transform="rotate(-280.66)" x="-0.19" style="text-anchor:end">0</text>
                    </g>
                </g>
            </g>
        </g>
        <g id="36">
            <g class="nad-vl300to500-0">
                <polyline points="-0.67,-8.85 -1.39,-7.33"/>
                <g class="nad-edge-infos" transform="translate(-0.80,-8.58)">
                    <g class="nad-active nad-state-out">
                        <g transform="rotate(-154.71)">
                            <path class="nad-arrow-in" d="M-0.1 -0.1 H0.1 L0 0.1z"/>
                            <path class="nad-arrow-out" d="M-0.1 0.1 H0.1 L0 -0.1z"/>
                        </g>
                        <text transform="rotate(-64.71)" x="-0.19" style="text-anchor:end">0</text>
                    </g>
                    <g class="nad-reactive nad-state-out">
                        <g transform="rotate(-154.71)">
                            <path class="nad-arrow-in" d="M-0.1 -0.1 H0.1 L0 0.1z"/>
                            <path class="nad-arrow-out" d="M-0.1 0.1 H0.1 L0 -0.1z"/>
                        </g>
                        <text transform="rotate(-64.71)" x="-0.19" style="text-anchor:end">0</text>
                    </g>
                </g>
            </g>
            <g class="nad-vl300to500-0">
                <polyline points="-2.11,-5.81 -1.39,-7.33"/>
                <g class="nad-edge-infos" transform="translate(-1.98,-6.08)">
                    <g class="nad-active nad-state-out">
                        <g transform="rotate(25.29)">
                            <path class="nad-arrow-in" d="M-0.1 -0.1 H0.1 L0 0.1z"/>
                            <path class="nad-arrow-out" d="M-0.1 0.1 H0.1 L0 -0.1z"/>
                        </g>
                        <text transform="rotate(-64.71)" x="0.19">0</text>
                    </g>
                    <g class="nad-reactive nad-state-out">
                        <g transform="rotate(25.29)">
                            <path class="nad-arrow-in" d="M-0.1 -0.1 H0.1 L0 0.1z"/>
                            <path class="nad-arrow-out" d="M-0.1 0.1 H0.1 L0 -0.1z"/>
                        </g>
                        <text transform="rotate(-64.71)" x="0.19">0</text>
                    </g>
                </g>
            </g>
        </g>
        <g id="37">
            <g class="nad-vl300to500-0">
                <polyline points="-2.34,-5.32 -3.26,-3.32"/>
                <g class="nad-edge-infos" transform="translate(-2.46,-5.05)">
                    <g class="nad-active nad-state-out">
                        <g transform="rotate(-155.28)">
                            <path class="nad-arrow-in" d="M-0.1 -0.1 H0.1 L0 0.1z"/>
                            <path class="nad-arrow-out" d="M-0.1 0.1 H0.1 L0 -0.1z"/>
                        </g>
                        <text transform="rotate(-65.28)" x="-0.19" style="text-anchor:end">0</text>
                    </g>
                    <g class="nad-reactive nad-state-out">
                        <g transform="rotate(-155.28)">
                            <path class="nad-arrow-in" d="M-0.1 -0.1 H0.1 L0 0.1z"/>
                            <path class="nad-arrow-out" d="M-0.1 0.1 H0.1 L0 -0.1z"/>
                        </g>
                        <text transform="rotate(-65.28)" x="-0.19" style="text-anchor:end">0</text>
                    </g>
                </g>
            </g>
        </g>
    </g>
    <g class="nad-text-edges">
        <polyline id="0_text_edge" points="3.57,-0.36 4.27,-0.36"/>
        <polyline id="2_text_edge" points="5.50,-2.76 6.20,-2.76"/>
        <polyline id="4_text_edge" points="5.16,2.25 5.86,2.25"/>
        <polyline id="6_text_edge" points="2.28,-6.33 2.98,-6.33"/>
        <polyline id="8_text_edge" points="2.05,5.68 2.45,5.68"/>
        <polyline id="11_text_edge" points="-3.06,3.86 -2.36,3.86"/>
        <polyline id="13_text_edge" points="3.72,9.37 4.42,9.37"/>
        <polyline id="15_text_edge" points="-0.26,-9.10 0.44,-9.10"/>
        <polyline id="17_text_edge" points="-1.93,-5.56 -1.23,-5.56"/>
    </g>
    <g class="nad-text-nodes">
        <text filter="url(#textBgFilter)" x="4.27" y="-0.36" style="dominant-baseline:middle">FFR1AA1</text>
        <text filter="url(#textBgFilter)" x="6.20" y="-2.76" style="dominant-baseline:middle">FFR2AA1</text>
        <text filter="url(#textBgFilter)" x="5.86" y="2.25" style="dominant-baseline:middle">FFR3AA1</text>
        <text filter="url(#textBgFilter)" x="2.98" y="-6.33" style="dominant-baseline:middle">DDE3AA1</text>
        <text filter="url(#textBgFilter)" x="2.45" y="5.68" style="dominant-baseline:middle">BBE3AA1</text>
        <text filter="url(#textBgFilter)" x="-2.36" y="3.86" style="dominant-baseline:middle">NNL2AA1</text>
        <text filter="url(#textBgFilter)" x="4.42" y="9.37" style="dominant-baseline:middle">BBE1AA1</text>
        <text filter="url(#textBgFilter)" x="0.44" y="-9.10" style="dominant-baseline:middle">DDE1AA1</text>
        <text filter="url(#textBgFilter)" x="-1.23" y="-5.56" style="dominant-baseline:middle">DDE2AA1</text>
    </g>
</svg>
